<svg width="390" height="483" viewBox="0 0 390 483" fill="none" xmlns="http://www.w3.org/2000/svg">
<path d="M165.281 15.6125C183.539 5.85683 205.461 5.85682 223.719 15.6125L452.27 137.734C472.45 148.517 485.052 169.537 485.052 192.417V428.583C485.052 451.463 472.45 472.483 452.27 483.266L223.719 605.388C205.461 615.143 183.539 615.143 165.281 605.388L-63.2703 483.266C-83.4503 472.483 -96.0515 451.463 -96.0515 428.583V192.417C-96.0515 169.537 -83.4503 148.517 -63.2704 137.734L165.281 15.6125Z" fill="#4493D0"/>
<path d="M165.281 61.6125C183.539 51.8568 205.461 51.8568 223.719 61.6125L452.27 183.734C472.45 194.517 485.052 215.537 485.052 238.417V474.583C485.052 497.463 472.45 518.483 452.27 529.266L223.719 651.388C205.461 661.143 183.539 661.143 165.281 651.388L-63.2703 529.266C-83.4503 518.483 -96.0515 497.463 -96.0515 474.583V238.417C-96.0515 215.537 -83.4503 194.517 -63.2704 183.734L165.281 61.6125Z" fill="#391D4B"/>
</svg>
